<svg width="319" height="593" viewBox="0 0 319 593" fill="none" xmlns="http://www.w3.org/2000/svg">
<path d="M251.325 114.672C251.325 178.004 210.527 229.344 160.201 229.344C109.875 229.344 69.0778 178.004 69.0778 114.672C69.0778 51.3405 109.875 0 160.201 0C210.527 0 251.325 51.3405 251.325 114.672Z" fill="#4A2C89"/>
<path d="M150.986 225.249H177.607L186.462 292.824L139.364 289.752L150.986 225.249Z" fill="#4A2C89"/>
<path d="M81.7044 133.084C86.6538 143.253 85.72 153.904 79.6188 156.873C73.5176 159.843 64.5593 154.007 59.6099 143.838C54.6606 133.669 55.5943 123.019 61.6955 120.049C67.7967 117.08 76.755 122.916 81.7044 133.084Z" fill="#4A2C89"/>
<path d="M237.761 133.084C232.812 143.253 233.746 153.904 239.847 156.873C245.948 159.843 254.906 154.007 259.856 143.838C264.805 133.669 263.871 123.019 257.77 120.049C251.669 117.08 242.711 122.916 237.761 133.084Z" fill="#4A2C89"/>
<path d="M147 187.927C155.45 180.885 169.398 176.728 181.53 187.927" stroke="white" stroke-width="1.86649"/>
<path d="M163.937 292.824L146.531 253.917L54.3837 292.824L0.119141 378.828H54.3837V592.814H249.941V378.828L319.058 375.315L287.823 332.754L256.603 289.311L179.294 253.917L163.937 292.824Z" fill="#4A2C89"/>
<rect x="30.6309" y="345.981" width="32.7635" height="170.336" rx="14.334" transform="rotate(9.39549 30.6309 345.981)" fill="#4A2C89"/>
<g filter="url(#filter0_f_76_577)">
<path d="M-5 181.81L135.754 360.399H193.288L318.539 181.81C193.288 19.4534 100.457 55.2884 -5 181.81Z" fill="#FFEB76" fill-opacity="0.27"/>
</g>
<rect x="134.245" y="327.635" width="59.3838" height="112.624" rx="10.2386" fill="#C4C4C4"/>
<rect x="124.664" y="371.935" width="32.7635" height="180.316" rx="16.3817" transform="rotate(43.6001 124.664 371.935)" fill="#52309A"/>
<rect width="32.7635" height="188.952" rx="14.334" transform="matrix(-0.955805 0.294003 0.294003 0.955805 263.681 340.549)" fill="#4A2C89"/>
<rect width="32.7635" height="194.266" rx="16.3817" transform="matrix(-0.74208 0.670312 0.670312 0.74208 190.781 368.589)" fill="#52309A"/>
<defs>
<filter id="filter0_f_76_577" x="-27.5249" y="50.5421" width="368.589" height="332.382" filterUnits="userSpaceOnUse" color-interpolation-filters="sRGB">
<feFlood flood-opacity="0" result="BackgroundImageFix"/>
<feBlend mode="normal" in="SourceGraphic" in2="BackgroundImageFix" result="shape"/>
<feGaussianBlur stdDeviation="11.2624" result="effect1_foregroundBlur_76_577"/>
</filter>
</defs>
</svg>
