<svg width="692" height="648" viewBox="0 0 692 648" fill="none" xmlns="http://www.w3.org/2000/svg">
<g clip-path="url(#clip0_89_567)">
<g filter="url(#filter0_f_89_567)">
<path d="M611.627 509.747C631.78 464.916 640.498 415.765 636.985 366.788C633.473 317.811 617.841 270.573 591.52 229.392C565.198 188.211 529.028 154.403 486.315 131.058C443.603 107.713 395.712 95.5776 347.022 95.7607C298.333 95.9438 250.398 108.44 207.602 132.106C164.806 155.772 128.515 189.854 102.046 231.233C75.5783 272.612 59.7783 319.969 56.0913 368.973C52.4042 417.976 60.9479 467.063 80.9409 511.743L332.09 396.233C331.006 393.809 330.542 391.145 330.742 388.486C330.942 385.827 331.799 383.258 333.236 381.012C334.672 378.767 336.641 376.918 338.963 375.634C341.285 374.35 343.886 373.672 346.528 373.662C349.17 373.652 351.769 374.31 354.086 375.577C356.404 376.844 358.366 378.678 359.794 380.913C361.223 383.147 362.071 385.71 362.261 388.368C362.452 391.025 361.979 393.692 360.886 396.125L611.627 509.747Z" fill="#FFEB76"/>
</g>
<rect width="28.8436" height="191.463" rx="11.61" transform="matrix(0.352005 -0.935998 -0.935998 -0.352005 589.926 517.386)" fill="#583699"/>
<path d="M420.96 262.112C420.96 313.408 387.916 354.992 347.154 354.992C306.392 354.992 273.348 313.408 273.348 262.112C273.348 210.816 306.392 169.232 347.154 169.232C387.916 169.232 420.96 210.816 420.96 262.112Z" fill="#583699"/>
<path d="M339.69 351.675H361.252L368.424 406.407L330.277 403.919L339.69 351.675Z" fill="#583699"/>
<path d="M283.575 277.025C287.584 285.261 286.827 293.888 281.886 296.293C276.944 298.698 269.688 293.972 265.679 285.735C261.67 277.499 262.427 268.872 267.369 266.467C272.31 264.062 279.566 268.789 283.575 277.025Z" fill="#583699"/>
<path d="M409.974 277.025C405.966 285.261 406.722 293.888 411.664 296.293C416.605 298.698 423.861 293.972 427.87 285.735C431.879 277.499 431.122 268.872 426.181 266.467C421.239 264.062 413.983 268.789 409.974 277.025Z" fill="#583699"/>
<path d="M350.18 404.749L336.082 373.236L269.739 399.433V432.115V474.408V647.728H432.279L426.474 474.408V432.115V399.433L362.619 373.236L350.18 404.749Z" fill="#583699"/>
<rect x="286.83" y="419.676" width="28.8424" height="202.539" rx="11.61" transform="rotate(69.3945 286.83 419.676)" fill="#583699"/>
<path d="M223.425 419.856L289.441 391.48L295.494 470.029L243.786 479.004L223.425 419.856Z" fill="#583699"/>
<path d="M483.694 418.707L415.693 395.627V475.919L467.937 481.043L483.694 418.707Z" fill="#583699"/>
<path d="M334 314C342.45 321.042 356.398 325.199 368.53 314" stroke="white" stroke-width="1.86649"/>
</g>
<defs>
<filter id="filter0_f_89_567" x="-191.871" y="-151.367" width="1076.74" height="910.237" filterUnits="userSpaceOnUse" color-interpolation-filters="sRGB">
<feFlood flood-opacity="0" result="BackgroundImageFix"/>
<feBlend mode="normal" in="SourceGraphic" in2="BackgroundImageFix" result="shape"/>
<feGaussianBlur stdDeviation="123.563" result="effect1_foregroundBlur_89_567"/>
</filter>
<clipPath id="clip0_89_567">
<rect width="692" height="648" fill="white"/>
</clipPath>
</defs>
</svg>
